<svg xmlns="http://www.w3.org/2000/svg" viewBox="0 0 1200 800" width="1200" height="800" role="img">
  
  <defs>
    <linearGradient id="sky-in-love-with-the-idea-network" x1="0" y1="0" x2="0" y2="1">
      <stop offset="0" stop-color="#FFFFFF"/>
      <stop offset="1" stop-color="#EAF4F6"/>
    </linearGradient>
    <radialGradient id="bloom-in-love-with-the-idea-network" cx="0.5" cy="0.5" r="0.5">
      <stop offset="0" stop-color="#005A6A" stop-opacity="0.28"/>
      <stop offset="1" stop-color="#005A6A" stop-opacity="0"/>
    </radialGradient>
    <linearGradient id="stroke-in-love-with-the-idea-network" x1="0" y1="0" x2="1" y2="1">
      <stop offset="0" stop-color="#005A6A"/>
      <stop offset="1" stop-color="#00424F"/>
    </linearGradient>
  </defs>
  <rect width="1200" height="800" fill="url(#sky-in-love-with-the-idea-network)"/>
  <g>
    <line x1="0" y1="0" x2="0" y2="800" stroke="#E9ECEF" stroke-width="1" opacity="0.48"/>
    <line x1="50" y1="0" x2="50" y2="800" stroke="#E9ECEF" stroke-width="1" opacity="0.38"/>
    <line x1="100" y1="0" x2="100" y2="800" stroke="#E9ECEF" stroke-width="1" opacity="0.37"/>
    <line x1="150" y1="0" x2="150" y2="800" stroke="#E9ECEF" stroke-width="1" opacity="0.56"/>
    <line x1="200" y1="0" x2="200" y2="800" stroke="#E9ECEF" stroke-width="1" opacity="0.43"/>
    <line x1="250" y1="0" x2="250" y2="800" stroke="#E9ECEF" stroke-width="1" opacity="0.55"/>
    <line x1="300" y1="0" x2="300" y2="800" stroke="#E9ECEF" stroke-width="1" opacity="0.57"/>
    <line x1="350" y1="0" x2="350" y2="800" stroke="#E9ECEF" stroke-width="1" opacity="0.59"/>
    <line x1="400" y1="0" x2="400" y2="800" stroke="#E9ECEF" stroke-width="1" opacity="0.59"/>
    <line x1="450" y1="0" x2="450" y2="800" stroke="#E9ECEF" stroke-width="1" opacity="0.55"/>
    <line x1="500" y1="0" x2="500" y2="800" stroke="#E9ECEF" stroke-width="1" opacity="0.5"/>
    <line x1="550" y1="0" x2="550" y2="800" stroke="#E9ECEF" stroke-width="1" opacity="0.44"/>
    <line x1="600" y1="0" x2="600" y2="800" stroke="#E9ECEF" stroke-width="1" opacity="0.42"/>
    <line x1="650" y1="0" x2="650" y2="800" stroke="#E9ECEF" stroke-width="1" opacity="0.45"/>
    <line x1="700" y1="0" x2="700" y2="800" stroke="#E9ECEF" stroke-width="1" opacity="0.48"/>
    <line x1="750" y1="0" x2="750" y2="800" stroke="#E9ECEF" stroke-width="1" opacity="0.56"/>
    <line x1="800" y1="0" x2="800" y2="800" stroke="#E9ECEF" stroke-width="1" opacity="0.59"/>
    <line x1="850" y1="0" x2="850" y2="800" stroke="#E9ECEF" stroke-width="1" opacity="0.39"/>
    <line x1="900" y1="0" x2="900" y2="800" stroke="#E9ECEF" stroke-width="1" opacity="0.51"/>
    <line x1="950" y1="0" x2="950" y2="800" stroke="#E9ECEF" stroke-width="1" opacity="0.4"/>
    <line x1="1000" y1="0" x2="1000" y2="800" stroke="#E9ECEF" stroke-width="1" opacity="0.58"/>
    <line x1="1050" y1="0" x2="1050" y2="800" stroke="#E9ECEF" stroke-width="1" opacity="0.39"/>
    <line x1="1100" y1="0" x2="1100" y2="800" stroke="#E9ECEF" stroke-width="1" opacity="0.43"/>
    <line x1="1150" y1="0" x2="1150" y2="800" stroke="#E9ECEF" stroke-width="1" opacity="0.52"/>
    <line x1="1200" y1="0" x2="1200" y2="800" stroke="#E9ECEF" stroke-width="1" opacity="0.54"/>
    <line x1="0" y1="0" x2="1200" y2="0" stroke="#E9ECEF" stroke-width="1" opacity="0.53"/>
    <line x1="0" y1="50" x2="1200" y2="50" stroke="#E9ECEF" stroke-width="1" opacity="0.48"/>
    <line x1="0" y1="100" x2="1200" y2="100" stroke="#E9ECEF" stroke-width="1" opacity="0.59"/>
    <line x1="0" y1="150" x2="1200" y2="150" stroke="#E9ECEF" stroke-width="1" opacity="0.48"/>
    <line x1="0" y1="200" x2="1200" y2="200" stroke="#E9ECEF" stroke-width="1" opacity="0.39"/>
    <line x1="0" y1="250" x2="1200" y2="250" stroke="#E9ECEF" stroke-width="1" opacity="0.51"/>
    <line x1="0" y1="300" x2="1200" y2="300" stroke="#E9ECEF" stroke-width="1" opacity="0.52"/>
    <line x1="0" y1="350" x2="1200" y2="350" stroke="#E9ECEF" stroke-width="1" opacity="0.39"/>
    <line x1="0" y1="400" x2="1200" y2="400" stroke="#E9ECEF" stroke-width="1" opacity="0.4"/>
    <line x1="0" y1="450" x2="1200" y2="450" stroke="#E9ECEF" stroke-width="1" opacity="0.54"/>
    <line x1="0" y1="500" x2="1200" y2="500" stroke="#E9ECEF" stroke-width="1" opacity="0.46"/>
    <line x1="0" y1="550" x2="1200" y2="550" stroke="#E9ECEF" stroke-width="1" opacity="0.6"/>
    <line x1="0" y1="600" x2="1200" y2="600" stroke="#E9ECEF" stroke-width="1" opacity="0.44"/>
    <line x1="0" y1="650" x2="1200" y2="650" stroke="#E9ECEF" stroke-width="1" opacity="0.58"/>
    <line x1="0" y1="700" x2="1200" y2="700" stroke="#E9ECEF" stroke-width="1" opacity="0.47"/>
    <line x1="0" y1="750" x2="1200" y2="750" stroke="#E9ECEF" stroke-width="1" opacity="0.36"/>
    <line x1="0" y1="800" x2="1200" y2="800" stroke="#E9ECEF" stroke-width="1" opacity="0.58"/>
  </g>
  <g>
    <circle cx="600" cy="400" r="420" fill="url(#bloom-in-love-with-the-idea-network)"/>
    <line x1="328.86" y1="607.21" x2="281.11" y2="425.45" stroke="url(#stroke-in-love-with-the-idea-network)" stroke-width="1.14" opacity="0.6"/>
    <line x1="328.86" y1="607.21" x2="324.03" y2="678.99" stroke="url(#stroke-in-love-with-the-idea-network)" stroke-width="1.47" opacity="0.48"/>
    <line x1="328.86" y1="607.21" x2="514.63" y2="708.47" stroke="url(#stroke-in-love-with-the-idea-network)" stroke-width="1.29" opacity="0.55"/>
    <line x1="328.86" y1="607.21" x2="521.45" y2="689.05" stroke="url(#stroke-in-love-with-the-idea-network)" stroke-width="1.15" opacity="0.52"/>
    <line x1="328.86" y1="607.21" x2="111.76" y2="652.43" stroke="url(#stroke-in-love-with-the-idea-network)" stroke-width="1.77" opacity="0.63"/>
    <line x1="328.86" y1="607.21" x2="412.5" y2="698.47" stroke="url(#stroke-in-love-with-the-idea-network)" stroke-width="2.14" opacity="0.39"/>
    <line x1="732.73" y1="407.97" x2="908.53" y2="421.88" stroke="url(#stroke-in-love-with-the-idea-network)" stroke-width="2.09" opacity="0.29"/>
    <line x1="732.73" y1="407.97" x2="589.02" y2="356.97" stroke="url(#stroke-in-love-with-the-idea-network)" stroke-width="1.56" opacity="0.44"/>
    <line x1="732.73" y1="407.97" x2="569.11" y2="516.05" stroke="url(#stroke-in-love-with-the-idea-network)" stroke-width="1.51" opacity="0.48"/>
    <line x1="795.39" y1="230.73" x2="954.06" y2="92.05" stroke="url(#stroke-in-love-with-the-idea-network)" stroke-width="1.68" opacity="0.45"/>
    <line x1="795.39" y1="230.73" x2="908.53" y2="421.88" stroke="url(#stroke-in-love-with-the-idea-network)" stroke-width="1.22" opacity="0.32"/>
    <line x1="795.39" y1="230.73" x2="967.93" y2="144.87" stroke="url(#stroke-in-love-with-the-idea-network)" stroke-width="1.78" opacity="0.35"/>
    <line x1="281.11" y1="425.45" x2="329.38" y2="544.36" stroke="url(#stroke-in-love-with-the-idea-network)" stroke-width="1.46" opacity="0.56"/>
    <line x1="281.11" y1="425.45" x2="339.53" y2="495.42" stroke="url(#stroke-in-love-with-the-idea-network)" stroke-width="2.17" opacity="0.37"/>
    <line x1="155.08" y1="411.01" x2="329.38" y2="544.36" stroke="url(#stroke-in-love-with-the-idea-network)" stroke-width="1.78" opacity="0.45"/>
    <line x1="155.08" y1="411.01" x2="174.24" y2="185.63" stroke="url(#stroke-in-love-with-the-idea-network)" stroke-width="1.19" opacity="0.35"/>
    <line x1="155.08" y1="411.01" x2="112.75" y2="401.79" stroke="url(#stroke-in-love-with-the-idea-network)" stroke-width="0.87" opacity="0.55"/>
    <line x1="155.08" y1="411.01" x2="339.53" y2="495.42" stroke="url(#stroke-in-love-with-the-idea-network)" stroke-width="1.26" opacity="0.61"/>
    <line x1="155.08" y1="411.01" x2="90.5" y2="593.21" stroke="url(#stroke-in-love-with-the-idea-network)" stroke-width="2.16" opacity="0.6"/>
    <line x1="324.03" y1="678.99" x2="111.76" y2="652.43" stroke="url(#stroke-in-love-with-the-idea-network)" stroke-width="1.93" opacity="0.66"/>
    <line x1="329.38" y1="544.36" x2="339.53" y2="495.42" stroke="url(#stroke-in-love-with-the-idea-network)" stroke-width="1.84" opacity="0.34"/>
    <line x1="329.38" y1="544.36" x2="412.5" y2="698.47" stroke="url(#stroke-in-love-with-the-idea-network)" stroke-width="1.82" opacity="0.48"/>
    <line x1="1025.47" y1="689.04" x2="1020.5" y2="499.99" stroke="url(#stroke-in-love-with-the-idea-network)" stroke-width="1.21" opacity="0.47"/>
    <line x1="908.53" y1="421.88" x2="1020.5" y2="499.99" stroke="url(#stroke-in-love-with-the-idea-network)" stroke-width="1.86" opacity="0.66"/>
    <line x1="134.25" y1="444.29" x2="92.42" y2="664.41" stroke="url(#stroke-in-love-with-the-idea-network)" stroke-width="1.34" opacity="0.32"/>
    <line x1="134.25" y1="444.29" x2="112.75" y2="401.79" stroke="url(#stroke-in-love-with-the-idea-network)" stroke-width="0.82" opacity="0.56"/>
    <line x1="134.25" y1="444.29" x2="90.5" y2="593.21" stroke="url(#stroke-in-love-with-the-idea-network)" stroke-width="1.17" opacity="0.29"/>
    <line x1="134.25" y1="444.29" x2="111.76" y2="652.43" stroke="url(#stroke-in-love-with-the-idea-network)" stroke-width="1.13" opacity="0.54"/>
    <line x1="174.24" y1="185.63" x2="112.75" y2="401.79" stroke="url(#stroke-in-love-with-the-idea-network)" stroke-width="1.71" opacity="0.62"/>
    <line x1="174.24" y1="185.63" x2="255.79" y2="186.01" stroke="url(#stroke-in-love-with-the-idea-network)" stroke-width="1.49" opacity="0.63"/>
    <line x1="505.9" y1="175.46" x2="589.02" y2="356.97" stroke="url(#stroke-in-love-with-the-idea-network)" stroke-width="1.65" opacity="0.47"/>
    <line x1="589.02" y1="356.97" x2="569.11" y2="516.05" stroke="url(#stroke-in-love-with-the-idea-network)" stroke-width="2.06" opacity="0.38"/>
    <line x1="514.63" y1="708.47" x2="521.45" y2="689.05" stroke="url(#stroke-in-love-with-the-idea-network)" stroke-width="0.87" opacity="0.44"/>
    <line x1="514.63" y1="708.47" x2="412.5" y2="698.47" stroke="url(#stroke-in-love-with-the-idea-network)" stroke-width="1.94" opacity="0.5"/>
    <line x1="339.53" y1="495.42" x2="412.5" y2="698.47" stroke="url(#stroke-in-love-with-the-idea-network)" stroke-width="1.78" opacity="0.59"/>
    <line x1="90.5" y1="593.21" x2="111.76" y2="652.43" stroke="url(#stroke-in-love-with-the-idea-network)" stroke-width="1.56" opacity="0.36"/>
    <line x1="521.45" y1="689.05" x2="412.5" y2="698.47" stroke="url(#stroke-in-love-with-the-idea-network)" stroke-width="1.08" opacity="0.35"/>
    <circle cx="328.86" cy="607.21" r="11.28" fill="#005A6A" opacity="0.88"/>
    <circle cx="732.73" cy="407.97" r="11.31" fill="#005A6A" opacity="0.93"/>
    <circle cx="795.39" cy="230.73" r="3.99" fill="#005A6A" opacity="0.9"/>
    <circle cx="281.11" cy="425.45" r="8.54" fill="#005A6A" opacity="0.56"/>
    <circle cx="155.08" cy="411.01" r="10.46" fill="#005A6A" opacity="0.63"/>
    <circle cx="324.03" cy="678.99" r="12.69" fill="#005A6A" opacity="0.82"/>
    <circle cx="954.06" cy="92.05" r="10.58" fill="#005A6A" opacity="0.93"/>
    <circle cx="329.38" cy="544.36" r="12.25" fill="#005A6A" opacity="0.98"/>
    <circle cx="1025.47" cy="689.04" r="5.83" fill="#005A6A" opacity="0.75"/>
    <circle cx="908.53" cy="421.88" r="10.34" fill="#005A6A" opacity="0.99"/>
    <circle cx="134.25" cy="444.29" r="3.9" fill="#005A6A" opacity="0.69"/>
    <circle cx="967.93" cy="144.87" r="12.82" fill="#005A6A" opacity="0.79"/>
    <circle cx="174.24" cy="185.63" r="4.78" fill="#005A6A" opacity="0.94"/>
    <circle cx="92.42" cy="664.41" r="4.1" fill="#005A6A" opacity="0.74"/>
    <circle cx="1020.5" cy="499.99" r="5.76" fill="#005A6A" opacity="0.71"/>
    <circle cx="505.9" cy="175.46" r="3.71" fill="#005A6A" opacity="0.92"/>
    <circle cx="112.75" cy="401.79" r="6.62" fill="#005A6A" opacity="0.94"/>
    <circle cx="255.79" cy="186.01" r="3.87" fill="#005A6A" opacity="0.7"/>
    <circle cx="589.02" cy="356.97" r="11.12" fill="#005A6A" opacity="0.57"/>
    <circle cx="514.63" cy="708.47" r="6.14" fill="#005A6A" opacity="0.83"/>
    <circle cx="569.11" cy="516.05" r="7.42" fill="#005A6A" opacity="0.85"/>
    <circle cx="339.53" cy="495.42" r="10.07" fill="#005A6A" opacity="0.64"/>
    <circle cx="90.5" cy="593.21" r="7.3" fill="#005A6A" opacity="0.97"/>
    <circle cx="521.45" cy="689.05" r="9.27" fill="#005A6A" opacity="0.86"/>
    <circle cx="111.76" cy="652.43" r="5.38" fill="#005A6A" opacity="0.72"/>
    <circle cx="412.5" cy="698.47" r="6.79" fill="#005A6A" opacity="0.56"/>
  </g>
</svg>
