<svg xmlns="http://www.w3.org/2000/svg" viewBox="0 0 1200 800" width="1200" height="800" role="img">
  
  <defs>
    <linearGradient id="sky-the-lonely-founder-diagnosis" x1="0" y1="0" x2="0" y2="1">
      <stop offset="0" stop-color="#FFFFFF"/>
      <stop offset="1" stop-color="#FFF1F1"/>
    </linearGradient>
    <radialGradient id="bloom-the-lonely-founder-diagnosis" cx="0.5" cy="0.5" r="0.5">
      <stop offset="0" stop-color="#FF6B6B" stop-opacity="0.28"/>
      <stop offset="1" stop-color="#FF6B6B" stop-opacity="0"/>
    </radialGradient>
    <linearGradient id="stroke-the-lonely-founder-diagnosis" x1="0" y1="0" x2="1" y2="1">
      <stop offset="0" stop-color="#FF6B6B"/>
      <stop offset="1" stop-color="#800000"/>
    </linearGradient>
  </defs>
  <rect width="1200" height="800" fill="url(#sky-the-lonely-founder-diagnosis)"/>
  <g>
    <line x1="0" y1="0" x2="0" y2="800" stroke="#E9ECEF" stroke-width="1" opacity="0.4"/>
    <line x1="50" y1="0" x2="50" y2="800" stroke="#E9ECEF" stroke-width="1" opacity="0.54"/>
    <line x1="100" y1="0" x2="100" y2="800" stroke="#E9ECEF" stroke-width="1" opacity="0.55"/>
    <line x1="150" y1="0" x2="150" y2="800" stroke="#E9ECEF" stroke-width="1" opacity="0.5"/>
    <line x1="200" y1="0" x2="200" y2="800" stroke="#E9ECEF" stroke-width="1" opacity="0.42"/>
    <line x1="250" y1="0" x2="250" y2="800" stroke="#E9ECEF" stroke-width="1" opacity="0.46"/>
    <line x1="300" y1="0" x2="300" y2="800" stroke="#E9ECEF" stroke-width="1" opacity="0.39"/>
    <line x1="350" y1="0" x2="350" y2="800" stroke="#E9ECEF" stroke-width="1" opacity="0.41"/>
    <line x1="400" y1="0" x2="400" y2="800" stroke="#E9ECEF" stroke-width="1" opacity="0.47"/>
    <line x1="450" y1="0" x2="450" y2="800" stroke="#E9ECEF" stroke-width="1" opacity="0.57"/>
    <line x1="500" y1="0" x2="500" y2="800" stroke="#E9ECEF" stroke-width="1" opacity="0.51"/>
    <line x1="550" y1="0" x2="550" y2="800" stroke="#E9ECEF" stroke-width="1" opacity="0.58"/>
    <line x1="600" y1="0" x2="600" y2="800" stroke="#E9ECEF" stroke-width="1" opacity="0.43"/>
    <line x1="650" y1="0" x2="650" y2="800" stroke="#E9ECEF" stroke-width="1" opacity="0.53"/>
    <line x1="700" y1="0" x2="700" y2="800" stroke="#E9ECEF" stroke-width="1" opacity="0.36"/>
    <line x1="750" y1="0" x2="750" y2="800" stroke="#E9ECEF" stroke-width="1" opacity="0.58"/>
    <line x1="800" y1="0" x2="800" y2="800" stroke="#E9ECEF" stroke-width="1" opacity="0.36"/>
    <line x1="850" y1="0" x2="850" y2="800" stroke="#E9ECEF" stroke-width="1" opacity="0.46"/>
    <line x1="900" y1="0" x2="900" y2="800" stroke="#E9ECEF" stroke-width="1" opacity="0.36"/>
    <line x1="950" y1="0" x2="950" y2="800" stroke="#E9ECEF" stroke-width="1" opacity="0.5"/>
    <line x1="1000" y1="0" x2="1000" y2="800" stroke="#E9ECEF" stroke-width="1" opacity="0.37"/>
    <line x1="1050" y1="0" x2="1050" y2="800" stroke="#E9ECEF" stroke-width="1" opacity="0.53"/>
    <line x1="1100" y1="0" x2="1100" y2="800" stroke="#E9ECEF" stroke-width="1" opacity="0.39"/>
    <line x1="1150" y1="0" x2="1150" y2="800" stroke="#E9ECEF" stroke-width="1" opacity="0.35"/>
    <line x1="1200" y1="0" x2="1200" y2="800" stroke="#E9ECEF" stroke-width="1" opacity="0.41"/>
    <line x1="0" y1="0" x2="1200" y2="0" stroke="#E9ECEF" stroke-width="1" opacity="0.52"/>
    <line x1="0" y1="50" x2="1200" y2="50" stroke="#E9ECEF" stroke-width="1" opacity="0.36"/>
    <line x1="0" y1="100" x2="1200" y2="100" stroke="#E9ECEF" stroke-width="1" opacity="0.43"/>
    <line x1="0" y1="150" x2="1200" y2="150" stroke="#E9ECEF" stroke-width="1" opacity="0.53"/>
    <line x1="0" y1="200" x2="1200" y2="200" stroke="#E9ECEF" stroke-width="1" opacity="0.59"/>
    <line x1="0" y1="250" x2="1200" y2="250" stroke="#E9ECEF" stroke-width="1" opacity="0.57"/>
    <line x1="0" y1="300" x2="1200" y2="300" stroke="#E9ECEF" stroke-width="1" opacity="0.37"/>
    <line x1="0" y1="350" x2="1200" y2="350" stroke="#E9ECEF" stroke-width="1" opacity="0.56"/>
    <line x1="0" y1="400" x2="1200" y2="400" stroke="#E9ECEF" stroke-width="1" opacity="0.46"/>
    <line x1="0" y1="450" x2="1200" y2="450" stroke="#E9ECEF" stroke-width="1" opacity="0.48"/>
    <line x1="0" y1="500" x2="1200" y2="500" stroke="#E9ECEF" stroke-width="1" opacity="0.57"/>
    <line x1="0" y1="550" x2="1200" y2="550" stroke="#E9ECEF" stroke-width="1" opacity="0.37"/>
    <line x1="0" y1="600" x2="1200" y2="600" stroke="#E9ECEF" stroke-width="1" opacity="0.45"/>
    <line x1="0" y1="650" x2="1200" y2="650" stroke="#E9ECEF" stroke-width="1" opacity="0.55"/>
    <line x1="0" y1="700" x2="1200" y2="700" stroke="#E9ECEF" stroke-width="1" opacity="0.47"/>
    <line x1="0" y1="750" x2="1200" y2="750" stroke="#E9ECEF" stroke-width="1" opacity="0.47"/>
    <line x1="0" y1="800" x2="1200" y2="800" stroke="#E9ECEF" stroke-width="1" opacity="0.52"/>
  </g>
  <g>
    <rect x="0" y="230" width="1200" height="340" fill="url(#bloom-the-lonely-founder-diagnosis)"/>
    <polyline points="0,483.75 20,432.11 40,379.99 60,336.53 80,305.39 100,284.82 120,271.33 140,264.03 160,266.24 180,283.17 200,317.22 220,364.71 240,416.37 260,461.68 280,493.9 300,512.49 320,521.28 340,523.95 360,520.47 380,506.98 400,479.4 420,437.95 440,389.02 460,342.84 480,308.49 500,289.57 520,283.66 540,285.59 560,292.16 580,304.52 600,326.7 620,361.17 640,405.11 660,450.25 680,486.6 700,507.56 720,512.93 740,507.58 760,497.11 780,483.64 800,464.87 820,437.13 840,399.83 860,358.06 880,321.02 900,297.29 920,290.29 940,297.01 960,311 980,327.14 1000,344.83 1020,367.26 1040,397.32 1060,433.57 1080,469.2 1100,495.19 1120,505.31 1140,499.56 1160,483.54 1180,464.26 1200,445.55" fill="none" stroke="url(#stroke-the-lonely-founder-diagnosis)" stroke-width="2.99" opacity="0.22"/>
    <polyline points="0,341.06 20,297.71 40,275.01 60,273.47 80,285.06 100,299.97 120,313.93 140,330.6 160,357.4 180,398.04 200,447.4 220,492.88 240,521.43 260,527.22 280,514.58 300,494 320,474.33 340,456.99 360,436.22 380,405.29 400,363.65 420,319.65 440,286.56 460,274.53 480,284.43 500,307.9 520,333.54 540,354.7 560,373.1 580,395.82 600,427.95 620,466.7 640,501.4 660,519.74 680,515.59 700,492.97 720,463.04 740,436.44 760,416.68 780,399.13 800,376.38 820,345.77 840,313.22 860,290.43 880,287.38 900,305.49 920,336.56 940,368.26 960,392.13 980,408.32 1000,423.7 1020,444.93 1040,471.73 1060,495.69 1080,505.41 1100,494.43 1120,466.04 1140,431.43 1160,402.39 1180,384.04 1200,372.63" fill="none" stroke="url(#stroke-the-lonely-founder-diagnosis)" stroke-width="2.14" opacity="0.29"/>
    <polyline points="0,324.72 20,334.79 40,351.13 60,371.99 80,395.24 100,418.6 120,439.87 140,457.07 160,468.61 180,473.37 200,470.9 220,461.45 240,446.06 260,426.37 280,404.44 300,382.44 320,362.48 340,346.4 360,335.65 380,331.22 400,333.53 420,342.34 440,356.75 460,375.23 480,395.85 500,416.5 520,435.18 540,450.16 560,460.12 580,464.19 600,462.02 620,453.82 640,440.41 660,423.18 680,403.91 700,384.6 720,367.17 740,353.25 760,344.06 780,340.37 800,342.44 820,350.05 840,362.46 860,378.42 880,396.31 900,414.26 920,430.46 940,443.35 960,451.79 980,455.11 1000,453.11 1020,446.05 1040,434.63 1060,419.95 1080,403.48 1100,386.91 1120,371.95 1140,360.06 1160,352.34 1180,349.38 1200,351.31" fill="none" stroke="url(#stroke-the-lonely-founder-diagnosis)" stroke-width="1.62" opacity="0.36"/>
    <polyline points="0,560.42 20,557.32 40,532.06 60,494.39 80,455.05 100,419.57 120,386.55 140,351.44 160,312.77 180,275.89 200,251.22 220,248.12 240,268.69 260,306.14 280,348.9 300,387.52 320,419.4 340,448.2 360,478.39 380,509.47 400,534.26 420,542.74 440,528.79 460,494.79 480,450.76 500,408.48 520,374.91 540,349.4 560,326.72 580,303.22 600,281.54 620,269.95 640,276.92 660,304.74 680,346.98 700,391.77 720,428.66 740,454.08 760,471.66 780,487.38 800,503.33 820,514.9 840,513.6 860,493.45 880,456.19 900,411.39 920,371.16 940,343.3 960,327.66 980,318.25 1000,309.37 1020,300.96 1040,299.19 1060,311.83 1080,341.69 1100,383.31 1120,425.27 1140,456.75 1160,473.54 1180,479.33 1200,481.47" fill="none" stroke="url(#stroke-the-lonely-founder-diagnosis)" stroke-width="3.08" opacity="0.43"/>
    <polyline points="0,511.82 20,482.03 40,444 60,404.71 80,369.27 100,339.49 120,314.95 140,295.47 160,282.99 180,281.27 200,293.55 220,319.88 240,356.09 260,395.33 280,431.1 300,459.89 320,481.49 340,497.15 360,506.98 380,508.84 400,499.48 420,477.23 440,444.17 460,406.08 480,369.99 500,341.13 520,321.1 540,308.62 560,301.98 580,301.33 600,308.9 620,327.16 640,356.03 660,391.62 680,427.31 700,456.73 720,476.5 740,486.97 760,490.57 780,489.06 800,481.88 820,466.86 840,442.59 860,410.8 880,376.7 900,346.95 920,326.52 940,316.68 960,315.29 980,319.33 1000,327.35 1020,340.38 1040,360.36 1060,387.49 1080,418.61 1100,447.81 1120,469.16 1140,479.62 1160,480.05 1180,473.87 1200,464.19" fill="none" stroke="url(#stroke-the-lonely-founder-diagnosis)" stroke-width="2.25" opacity="0.5"/>
    <polyline points="0,311.23 20,297.3 40,300.44 60,316.07 80,336.35 100,355.55 120,373.34 140,393.59 160,419.86 180,450.86 200,479.72 220,497.46 240,498.55 260,484.27 280,461.69 300,438.76 320,419.43 340,401.96 360,381.88 380,356.98 400,330.63 420,310.7 440,304.85 460,315.46 480,337.99 500,363.97 520,386.38 540,403.65 560,419.27 580,437.65 600,459.26 620,478.96 640,488.77 660,483.24 680,463.33 700,436.13 720,410.37 740,391.14 760,377.51 780,364.73 800,349.15 820,332.24 840,320.38 860,320.71 880,335.89 900,361.81 920,389.87 940,412.24 960,426.41 980,435.61 1000,445.15 1020,457.26 1040,468.63 1060,472.35 1080,462.94 1100,440.79 1120,412.53 1140,387.15 1160,370.53 1180,362.35 1200,357.56" fill="none" stroke="url(#stroke-the-lonely-founder-diagnosis)" stroke-width="2.83" opacity="0.57"/>
    <polyline points="0,439.72 20,468.28 40,486.18 60,492.3 80,489.03 100,479.9 120,466.91 140,449.58 160,426.38 180,397.29 200,365.54 220,336.99 240,317.56 260,310.22 280,313.91 300,324.87 320,339.48 340,356.4 360,376.62 380,401.32 400,429.4 420,456.62 440,477.1 460,486.36 480,483.61 500,471.84 520,455.54 540,437.89 560,419.32 580,398.46 600,374.68 620,350.15 640,329.7 660,318.51 680,319.23 700,330.46 720,347.83 740,366.78 760,385.05 780,403.19 800,422.71 820,443.52 840,462.59 860,475.02 880,476.84 900,467.47 920,450.18 940,430.07 960,411.11 980,394.32 1000,378.31 1020,361.65 1040,345.27 1060,332.78 1080,328.64 1100,335.21 1120,351.04 1140,371.51 1160,391.51 1180,408.22 1200,421.96" fill="none" stroke="#FF6B6B" stroke-width="6" stroke-linecap="round" opacity="1"/>
    <line x1="0" y1="400" x2="1200" y2="400" stroke="#343A40" stroke-width="1.5" opacity="0.3" stroke-dasharray="6 10"/>
  </g>
</svg>
